<svg xmlns="http://www.w3.org/2000/svg" width="361.492" height="466.535" viewBox="0 0 95.645 123.437"><path d="m680.558 98.882-1.59 24.25-13.944-7.389 15.39 24.17 4.966.182.998 3.082-37.432 79.143 57.43-69.834 1.992-.645 3.059 3.916 28.605-1.693-14.16-6.967 18.72-15.502-33.19 3.974-3.575-11.039-11.04 3.575z" style="baseline-shift:baseline;display:inline;overflow:visible;vector-effect:none;stroke-linecap:round;stroke-miterlimit:10.3;stop-color:#000" transform="translate(-648.946 -98.882)"/><path d="m683.272 110.978-1.038 15.826 15.516 10.244zm14.478 26.07-22.657-12.007 7.286 11.442zm7.825-8.11-8.53 2.76 1.854 5.726-9.69 3.137 4.045 12.493 12.493-4.044-3.136-9.69 5.726-1.853zm27.623 7.547-29.61 3.546 17.395 6.57zm-29.61 3.546 9.467 12.124 13.542-.802zm-14.678 5.976-24.717 52.263 37.818-45.987-10.02 3.243z" style="baseline-shift:baseline;display:inline;overflow:visible;vector-effect:none;fill:#ffbe00;stroke-linecap:round;stroke-miterlimit:10.3;stop-color:#000" transform="translate(-648.946 -98.882)"/></svg>