<?xml version="1.0" encoding="UTF-8" standalone="no"?>
<!-- Created with Inkscape (http://www.inkscape.org/) -->

<svg
   width="345.38876mm"
   height="87.292366mm"
   viewBox="0 0 345.38877 87.292366"
   version="1.1"
   id="svg1"
   xmlns="http://www.w3.org/2000/svg"
   xmlns:svg="http://www.w3.org/2000/svg">
  <defs
     id="defs1" />
  <g
     id="layer1"
     transform="translate(4.103545,-180.0875)">
    <g
       id="g6"
       transform="translate(44.498568,-29.66959)">
      <path
         id="text27-8-4-76-9"
         style="font-weight:800;font-size:60.8321px;line-height:1;font-family:Syne;-inkscape-font-specification:'Syne Ultra-Bold';fill:#ffffff;stroke-width:49.2678;stroke-linecap:round;stroke-linejoin:round;stroke-miterlimit:10.3"
         d="m 190.62618,233.98849 c -1.56409,0 -3.06959,0.0317 -4.51652,0.0951 l -14.23944,11.79256 5.11079,2.51458 h 5.2e-4 c 1.04381,-0.42452 2.21176,-0.75564 3.5047,-0.99323 2.91311,-0.57248 6.29315,-0.85835 10.13995,-0.85835 3.84681,0 7.17093,0.28587 9.972,0.85835 2.80107,0.52844 4.96705,1.51971 6.49831,2.97295 1.53125,1.40919 2.29702,3.43492 2.29702,6.07715 0,2.64224 -0.76577,4.68954 -2.29702,6.14278 -1.53126,1.40919 -3.69724,2.40046 -6.49831,2.97294 -2.80107,0.52845 -6.12519,0.7922 -9.972,0.7922 -3.8468,0 -7.22684,-0.26375 -10.13995,-0.7922 -2.87577,-0.57248 -5.1351,-1.56375 -6.7784,-2.97294 -1.60595,-1.45324 -2.40915,-3.50054 -2.40915,-6.14278 0,-1.00736 0.11694,-1.92519 0.35036,-2.75332 l -14.22445,0.8418 -0.57671,-0.73845 c -0.0764,0.85539 -0.11472,1.739 -0.11472,2.64997 0,4.93217 1.12069,9.07153 3.36155,12.41836 2.27819,3.3028 5.90084,5.81283 10.86807,7.53029 4.96723,1.67342 11.52162,2.50992 19.6634,2.50992 8.14178,0 14.69616,-0.8365 19.66339,-2.50992 4.96724,-1.71746 8.57142,-4.22749 10.81227,-7.53029 2.27821,-3.34683 3.41736,-7.48619 3.41736,-12.41836 0,-4.93218 -1.13915,-9.04994 -3.41736,-12.35273 -2.24085,-3.34684 -5.84503,-5.85688 -10.81227,-7.5303 -4.96723,-1.71745 -11.52161,-2.57607 -19.66339,-2.57607 z m 41.17578,1.32085 v 42.27597 h 14.00535 v -25.24342 l 36.97396,25.24342 h 14.00535 v -42.27597 h -14.00535 v 25.70644 l -36.97396,-25.70644 z" />
      <path
         id="text27-4-8-9"
         style="font-weight:800;font-size:56.8602px;line-height:1;font-family:Syne;-inkscape-font-specification:'Syne Ultra-Bold';baseline-shift:baseline;display:inline;overflow:visible;vector-effect:none;fill:#ffffff;stroke-linecap:round;stroke-miterlimit:10.3;enable-background:accumulate;stop-color:#000000"
         d="m -15.677508,233.98849 c -7.684317,0 -13.910697,0.80243 -18.729606,2.46859 -4.800956,1.61886 -8.43885,4.08779 -10.779704,7.52667 v 0.002 c -2.283129,3.3651 -3.415295,7.58987 -3.415295,12.46177 0,4.87192 1.131535,9.11181 3.410128,12.51499 l 0.0052,0.009 0.0057,0.009 c 2.341979,3.39525 5.973865,5.8608 10.77402,7.52048 l 0.0036,0.002 h 0.0036 c 4.815432,1.62228 11.039955,2.40295 18.722371,2.40295 7.6824169,0 13.9048719,-0.78067 18.720305,-2.40295 h 0.00359 l 0.00359,-0.002 c 4.8009619,-1.65996 8.418705,-4.1258 10.727511,-7.52874 2.316063,-3.40244 3.467488,-7.64751 3.467488,-12.52379 0,-4.87339 -1.151712,-9.10108 -3.469555,-12.46436 -2.307868,-3.44166 -5.9280212,-5.90899 -10.725444,-7.52667 -4.8189078,-1.66616 -11.0432213,-2.46858 -18.727538,-2.46858 z m 37.243205,1.23404 v 42.44908 h 15.57631 V 265.63152 H 69.608242 V 252.20237 H 37.142007 v -2.31615 h 39.693185 v -14.66369 z m 59.066162,0 v 42.44908 H 96.20869 v -12.04009 h 24.96953 l 1.38648,-2.93108 H 93.722532 v 12.03802 h -10.60452 v -36.58278 h 42.950868 l -1.86707,-2.93315 z m -96.309367,1.69912 c 7.5360415,0 13.5629999,0.8032 18.0299069,2.34765 l 0.00313,0.002 h 0.00359 c 4.4798799,1.50924 7.5916208,3.73051 9.4717741,6.53862 l 0.0057,0.009 0.0057,0.009 c 1.938304,2.81003 2.915584,6.27706 2.915584,10.62106 0,4.34401 -0.976357,7.83511 -2.919201,10.68927 l -0.002,0.002 c -1.8802831,2.77135 -4.9993224,4.99624 -9.4841761,6.5469 -4.4697572,1.50467 -10.495451,2.28822 -18.0299069,2.28822 -7.533623,0 -13.5603,-0.78388 -18.029907,-2.28822 -4.480451,-1.54914 -7.619342,-3.77236 -9.536886,-6.5469 -1.907174,-2.85204 -2.870626,-6.34676 -2.870626,-10.69133 0,-4.34721 0.962061,-7.82105 2.867009,-10.62985 l 0.002,-0.002 c 1.91681,-2.81471 5.049606,-5.03571 9.529134,-6.54482 h 0.0036 l 0.0057,-0.002 c 4.466907,-1.54446 10.493866,-2.34767 18.029907,-2.34767 z m 39.728841,1.23403 h 50.296155 v 8.79946 H 34.656371 v 8.18038 h 32.465718 v 7.56492 H 34.656371 v 12.03802 H 24.051333 Z m -39.728841,7.56543 c -3.643172,0 -6.861845,0.2677 -9.669694,0.81855 h -5.17e-4 -5.17e-4 l -5.16e-4,5.2e-4 c -4.46e-4,2.2e-4 -0.0017,7.9e-4 -0.002,0.001 h -5.17e-4 l -5.18e-4,5.1e-4 h -5.16e-4 -5.17e-4 c -2.819328,0.51887 -5.126767,1.49917 -6.88175,3.04994 -1.799641,1.57915 -2.75177,4.03652 -2.75177,6.85644 0,2.81991 0.947513,5.28386 2.737301,6.90345 l 0.01292,0.0129 0.01241,0.0109 c 1.750224,1.50089 4.045261,2.47875 6.860046,3.03908 l 0.0093,0.002 h 0.0087 c 2.804195,0.50868 6.024227,0.75912 9.668143,0.75912 3.643917,0 6.8108791,-0.24864 9.5167322,-0.75912 l 0.00724,-0.002 0.00879,-0.002 c 2.7497559,-0.56199 4.9697146,-1.54229 6.62646883,-3.06699 l 0.007238,-0.007 0.007238,-0.007 c 1.71797547,-1.63044 2.60966057,-4.08071 2.60966057,-6.88433 0,-2.79967 -0.8953697,-5.23829 -2.61896231,-6.82904 -1.66082449,-1.57265 -3.89123149,-2.55749 -6.64403889,-3.07734 -2.7101651,-0.5529 -5.8772514,-0.82062 -9.5203494,-0.82062 z m 109.40004,1.23403 v 8.18038 h 32.420238 l 1.387,-2.93315 H 96.20869 v -2.31615 h 32.41662 l 1.38648,-2.93108 z m -109.40004,1.69705 c 3.54333,0 6.5826052,0.2645 9.106421,0.78032 l 0.00878,0.002 0.00723,0.002 c 2.4775227,0.4674 4.2914934,1.33423 5.4916545,2.47323 l 0.00724,0.007 0.00724,0.007 c 1.13417361,1.04378 1.66914872,2.39001 1.66914872,4.52582 0,2.12983 -0.53840019,3.50455 -1.67638342,4.58939 -1.2051418,1.10658 -3.03076,1.97602 -5.5112915,2.48357 h -5.24e-4 v 5.1e-4 h -5.167e-4 l -5.168e-4,5.2e-4 -5.167e-4,5.2e-4 -5.168e-4,5.1e-4 h -5.168e-4 -5.167e-4 c -2.5278386,0.47572 -5.5653798,0.71882 -9.1064208,0.71882 -3.545303,0 -6.644082,-0.24431 -9.284704,-0.72295 h -0.0057 c -2.542935,-0.5088 -4.459497,-1.38163 -5.777425,-2.50683 -1.2031,-1.09502 -1.755449,-2.45233 -1.755449,-4.56406 0,-2.11952 0.547741,-3.44941 1.750282,-4.50463 l 0.0016,-0.002 0.002,-0.002 c 1.31538,-1.16324 3.230318,-2.03369 5.782592,-2.50269 h 0.0057 l 0.0073,-0.002 c 2.635374,-0.51791 5.730523,-0.78238 9.273853,-0.78238 z" />
      <path
         style="baseline-shift:baseline;display:inline;overflow:visible;vector-effect:none;fill:#ffffff;fill-opacity:1;stroke-linecap:round;stroke-miterlimit:10.3;enable-background:accumulate;stop-color:#000000"
         d="m 129.27001,209.7571 -1.03869,15.82643 15.51687,10.24382 z m 14.47818,26.07025 -22.657,-12.00754 7.28584,11.44219 z m 7.82485,-8.11061 -8.52972,2.76106 1.85365,5.72575 -9.68934,3.13676 4.0442,12.49329 12.4933,-4.04419 -3.13677,-9.68933 5.72627,-1.85363 z m 27.62312,7.54734 -29.60957,3.54603 17.39377,6.57014 z m -29.60957,3.54603 9.46609,12.12381 13.54181,-0.8015 z m -14.67869,5.97638 -24.71734,52.26296 37.81784,-45.98737 -10.01902,3.24321 z"
         id="path2-0-1" />
    </g>
  </g>
</svg>
