<svg xmlns="http://www.w3.org/2000/svg" width="1305.406" height="329.924" viewBox="0 0 345.389 87.292"><path d="M214.83 107.686q-2.547 0-4.904.087l-15.462 10.86 5.55 2.316q1.7-.587 3.806-.915 4.744-.79 11.01-.79t10.829.79q4.561.73 7.056 2.738 2.494 1.946 2.494 5.597 0 3.649-2.494 5.657-2.494 1.946-7.056 2.737-4.563.73-10.829.73t-11.01-.73q-4.685-.791-7.361-2.737-2.616-2.008-2.616-5.657 0-1.392.38-2.536l-15.445.775-.627-.68a23 23 0 0 0-.124 2.44q0 6.814 3.65 11.437 3.71 4.563 11.801 6.935 8.09 2.31 21.352 2.311 13.261 0 21.352-2.311 8.091-2.373 11.74-6.935 3.712-4.623 3.712-11.436 0-6.815-3.711-11.376-3.65-4.623-11.74-6.935-8.092-2.372-21.353-2.372m44.712 1.216v38.933h15.208v-23.247l40.149 23.247h15.208v-38.933h-15.208v23.674l-40.15-23.674z" style="font-weight:800;font-size:60.8321px;line-height:1;font-family:Syne;-inkscape-font-specification:&quot;Syne Ultra-Bold&quot;;fill:#fff;stroke-width:49.2678;stroke-linecap:round;stroke-linejoin:round;stroke-miterlimit:10.3" transform="matrix(.92092 0 0 1.08587 41.387 -92.701)"/><path d="M-9.19 107.686c-8.343 0-15.104.739-20.337 2.273-5.213 1.49-9.164 3.764-11.706 6.931v.002c-2.479 3.1-3.708 6.99-3.708 11.477 0 4.486 1.229 8.39 3.703 11.525l.005.008.007.008c2.543 3.127 6.486 5.397 11.699 6.926l.004.002h.004c5.229 1.494 11.988 2.213 20.33 2.213s15.099-.72 20.328-2.213h.003l.004-.002c5.214-1.529 9.142-3.8 11.65-6.934 2.514-3.133 3.764-7.042 3.764-11.533 0-4.488-1.25-8.381-3.767-11.479-2.506-3.17-6.437-5.441-11.647-6.931-5.232-1.535-11.991-2.273-20.335-2.273m40.442 1.136v39.092h16.914v-11.088H83.42V124.46H48.166v-2.133h43.102v-13.504zm64.138 0v39.092h16.915v-11.088h27.114l1.505-2.699h-31.319v11.086H98.09v-33.69h46.64l-2.028-2.701zm-104.58 1.565c8.184 0 14.728.74 19.579 2.162l.003.002h.004c4.865 1.39 8.244 3.435 10.285 6.021l.007.008.006.008c2.105 2.588 3.166 5.781 3.166 9.781s-1.06 7.216-3.17 9.844l-.002.002c-2.042 2.553-5.429 4.602-10.299 6.03-4.854 1.385-11.397 2.107-19.578 2.107s-14.725-.722-19.578-2.107c-4.866-1.427-8.274-3.474-10.356-6.03-2.071-2.626-3.117-5.844-3.117-9.845 0-4.004 1.044-7.203 3.113-9.79l.002-.002c2.082-2.592 5.483-4.637 10.348-6.027h.003l.007-.002c4.85-1.422 11.395-2.162 19.578-2.162zm43.141 1.136h54.615v8.104h-43.1v7.533h35.255v6.967H45.467v11.086H33.95Zm-43.14 6.967c-3.956 0-7.451.247-10.5.754h-.002l-.002.002h-.002c-3.062.478-5.567 1.38-7.473 2.809-1.954 1.454-2.988 3.717-2.988 6.314s1.029 4.866 2.972 6.358l.014.011.014.01c1.9 1.383 4.392 2.283 7.449 2.8l.01.001h.01c3.044.469 6.54.7 10.498.7s7.396-.23 10.334-.7l.008-.002.01-.002c2.985-.517 5.396-1.42 7.195-2.824l.007-.006.008-.006c1.866-1.502 2.834-3.758 2.834-6.34 0-2.578-.972-4.824-2.844-6.29-1.803-1.447-4.225-2.354-7.214-2.833-2.943-.51-6.382-.756-10.338-.756zm118.794 1.137v7.533h35.204l1.507-2.7h-34.011v-2.134h35.2l1.506-2.7zM-9.189 121.19c3.847 0 7.148.243 9.888.718l.01.002.008.002c2.69.43 4.66 1.229 5.963 2.278l.008.006.008.006c1.231.961 1.812 2.2 1.812 4.168 0 1.961-.585 3.227-1.82 4.226-1.309 1.02-3.291 1.82-5.985 2.287H.702v.001H.7v.001H.7c-2.746.438-6.044.662-9.89.662-3.849 0-7.214-.225-10.081-.665h-.006c-2.762-.469-4.843-1.273-6.274-2.309-1.306-1.008-1.906-2.258-1.906-4.203 0-1.952.595-3.177 1.9-4.149l.002-.002.002-.002c1.429-1.07 3.508-1.872 6.28-2.304h.006l.008-.002c2.861-.477 6.222-.72 10.07-.72z" style="font-weight:800;font-size:56.8602px;line-height:1;font-family:Syne;-inkscape-font-specification:&quot;Syne Ultra-Bold&quot;;baseline-shift:baseline;display:inline;overflow:visible;opacity:1;vector-effect:none;fill:#fff;stroke-linecap:round;stroke-miterlimit:10.3;stop-color:#000;stop-opacity:1" transform="matrix(.92092 0 0 1.08587 41.387 -92.701)"/><path d="m136.485 92.701-1.039 15.827 15.517 10.244zm14.478 26.07-22.657-12.007 7.286 11.442zm7.825-8.11-8.53 2.761 1.854 5.726-9.69 3.137 4.045 12.493 12.493-4.044-3.137-9.69 5.727-1.853zm27.623 7.547-29.61 3.546 17.394 6.57zm-29.61 3.546 9.467 12.124 13.541-.801zm-14.678 5.977-24.717 52.263 37.817-45.988-10.019 3.244z" style="baseline-shift:baseline;display:inline;overflow:visible;vector-effect:none;fill:#ffbe00;stroke-linecap:round;stroke-miterlimit:10.3;stop-color:#000" transform="translate(41.387 -92.701)"/></svg>