<?xml version="1.0" encoding="UTF-8" standalone="no"?>
<!-- Created with Inkscape (http://www.inkscape.org/) -->

<svg
   width="345.38876mm"
   height="87.292358mm"
   viewBox="0 0 345.38877 87.292359"
   version="1.1"
   id="svg1"
   xmlns="http://www.w3.org/2000/svg"
   xmlns:svg="http://www.w3.org/2000/svg">
  <defs
     id="defs1" />
  <g
     id="layer1"
     transform="translate(4.1035446,-40.504359)">
    <g
       id="g4"
       transform="translate(37.283605,-52.197047)">
      <g
         id="g1">
        <path
           id="text27-8-4-76"
           style="font-weight:800;font-size:60.8321px;line-height:1;font-family:Syne;-inkscape-font-specification:'Syne Ultra-Bold';fill:#ffffff;stroke-width:49.2678;stroke-linecap:round;stroke-linejoin:round;stroke-miterlimit:10.3"
           d="m 214.8302,107.6856 c -1.6984,0 -3.33319,0.0292 -4.90437,0.0876 l -15.46221,10.85999 5.54967,2.31572 h 5.6e-4 c 1.13345,-0.39095 2.40169,-0.69588 3.80566,-0.91468 3.16326,-0.52721 6.83355,-0.79047 11.01069,-0.79047 4.17714,0 7.78671,0.26326 10.82831,0.79047 3.04161,0.48665 5.39359,1.39953 7.05634,2.73784 1.66274,1.29775 2.49427,3.16328 2.49427,5.59656 0,2.43329 -0.83153,4.31869 -2.49427,5.657 -1.66275,1.29775 -4.01473,2.21063 -7.05634,2.73784 -3.0416,0.48666 -6.65117,0.72955 -10.82831,0.72955 -4.17714,0 -7.84743,-0.24289 -11.01069,-0.72955 -3.12272,-0.52721 -5.57607,-1.44009 -7.36048,-2.73784 -1.74385,-1.33831 -2.61603,-3.22371 -2.61603,-5.657 0,-0.92769 0.12698,-1.77294 0.38045,-2.53558 l -15.44594,0.77523 -0.62623,-0.68005 c -0.083,0.78774 -0.12457,1.60147 -0.12457,2.4404 0,4.54213 1.21692,8.35414 3.65021,11.4363 2.47383,3.04161 6.40756,5.35315 11.80134,6.93479 5.39378,1.54108 12.511,2.31143 21.35194,2.31143 8.84093,0 15.95815,-0.77035 21.35193,-2.31143 5.39378,-1.58164 9.30746,-3.89318 11.74074,-6.93479 2.47384,-3.08216 3.71082,-6.89417 3.71082,-11.4363 0,-4.54213 -1.23698,-8.33426 -3.71082,-11.37586 -2.43328,-3.08216 -6.34696,-5.39371 -11.74074,-6.93479 -5.39378,-1.58163 -12.511,-2.37235 -21.35193,-2.37235 z m 44.71163,1.2164 v 38.93273 h 15.20802 v -23.24714 l 40.149,23.24714 h 15.20802 V 108.902 h -15.20802 v 23.67354 l -40.149,-23.67354 z"
           transform="scale(0.92091869,1.0858722)" />
        <path
           id="text27-4-8"
           style="font-weight:800;font-size:56.8602px;line-height:1;font-family:Syne;-inkscape-font-specification:'Syne Ultra-Bold';baseline-shift:baseline;display:inline;overflow:visible;opacity:1;vector-effect:none;fill:#ffffff;stroke-linecap:round;stroke-miterlimit:10.3;enable-background:accumulate;stop-color:#000000;stop-opacity:1"
           d="m -9.1892415,107.6856 c -8.3441865,0 -15.1052395,0.73897 -20.3379585,2.27337 -5.213225,1.49084 -9.163512,3.76452 -11.705381,6.93145 v 0.002 c -2.479186,3.09898 -3.708574,6.98965 -3.708574,11.47628 0,4.48664 1.228703,8.39123 3.702963,11.52529 l 0.0056,0.008 0.0062,0.008 c 2.543089,3.12675 6.486854,5.39732 11.699208,6.92575 l 0.0039,0.002 h 0.0039 c 5.228944,1.49399 11.98798,2.21292 20.3301025,2.21292 8.3421227,0 15.0989135,-0.71893 20.3278585,-2.21292 h 0.0039 l 0.0039,-0.002 c 5.213231,-1.52869 9.141637,-3.79952 11.648706,-6.93336 2.514948,-3.13337 3.765249,-7.04273 3.765249,-11.53339 0,-4.48799 -1.250612,-8.38135 -3.767494,-11.47866 -2.506049,-3.16949 -6.437073,-5.4417 -11.646461,-6.93145 -5.232718,-1.5344 -11.99152695,-2.27336 -20.3357135,-2.27336 z m 40.4413605,1.13645 V 147.9142 H 48.166001 V 136.82626 H 83.420183 V 124.4591 H 48.166001 v -2.13298 h 43.101726 v -13.50407 z m 64.138303,0 v 39.09215 h 16.914448 v -11.08794 h 27.11372 l 1.50554,-2.69929 h -31.31891 v 11.08604 H 98.090067 v -33.68977 h 46.639153 l -2.0274,-2.70119 z M -9.1892415,110.3868 c 8.1831779,0 14.7276844,0.73968 19.5781745,2.162 l 0.0034,0.002 h 0.0039 c 4.864577,1.38988 8.24353,3.43549 10.285136,6.02153 l 0.0062,0.008 0.0062,0.008 c 2.104751,2.58781 3.165952,5.78066 3.165952,9.78113 0,4.00048 -1.060199,7.2155 -3.16988,9.84395 l -0.0022,0.002 c -2.041747,2.55219 -5.428625,4.60113 -10.298603,6.02916 -4.853585,1.38568 -11.3967184,2.10727 -19.5781745,2.10727 -8.1805515,0 -14.7247525,-0.72189 -19.5781745,-2.10727 -4.865197,-1.42663 -8.273632,-3.47404 -10.355839,-6.02916 -2.070947,-2.6265 -3.117133,-5.84485 -3.117133,-9.84585 0,-4.00342 1.044675,-7.20255 3.113205,-9.78922 l 0.0022,-0.002 c 2.081411,-2.59212 5.483227,-4.63748 10.347422,-6.02725 h 0.0039 l 0.0062,-0.002 c 4.85049,-1.42232 11.394997,-2.16201 19.5781745,-2.16201 z m 43.1404435,1.13644 h 54.615197 v 8.10359 H 45.466918 v 7.53347 h 35.253621 v 6.96667 H 45.466918 v 11.08604 H 33.951202 Z m -43.1404435,6.96715 c -3.9560195,0 -7.4510865,0.24653 -10.5000515,0.75382 h -5.62e-4 -5.61e-4 l -5.61e-4,4.8e-4 c -4.84e-4,2e-4 -0.0018,7.2e-4 -0.0022,9.5e-4 h -5.61e-4 l -5.62e-4,4.7e-4 h -5.61e-4 -5.61e-4 c -3.06143,0.47784 -5.567014,1.38062 -7.472701,2.80875 -1.95418,1.45427 -2.988071,3.71731 -2.988071,6.31422 0,2.59691 1.028878,4.86601 2.972359,6.35752 l 0.01403,0.0119 0.01347,0.01 c 1.90052,1.3822 4.392637,2.28273 7.449133,2.79875 l 0.0101,0.002 h 0.0095 c 3.044998,0.46846 6.541541,0.69909 10.4983685,0.69909 3.9568273,0 7.3957438,-0.22898 10.3339544,-0.69909 l 0.00786,-0.002 0.00954,-0.002 c 2.9858835,-0.51755 5.396475,-1.42033 7.1954983,-2.82445 l 0.00786,-0.006 0.00786,-0.006 c 1.8655018,-1.5015 2.8337578,-3.758 2.8337578,-6.33991 0,-2.57827 -0.972257,-4.82404 -2.8438583,-6.28899 -1.8034432,-1.44828 -4.2253801,-2.35524 -7.2145771,-2.83398 -2.942893,-0.50918 -6.3819437,-0.75572 -10.3378824,-0.75572 z m 118.7944615,1.13644 v 7.53347 h 35.20424 l 1.5061,-2.7012 h -34.01069 v -2.13298 h 35.20031 l 1.50554,-2.69929 z m -118.7944615,1.56285 c 3.8476036,0 7.1478679,0.24358 9.88840926,0.71861 l 0.009539,0.002 0.007856,0.002 c 2.69027294,0.43044 4.66001334,1.22872 5.96323494,2.27765 l 0.00786,0.006 0.00786,0.006 c 1.2315676,0.96123 1.8124822,2.201 1.8124822,4.16791 0,1.9614 -0.5846338,3.2274 -1.8203382,4.22645 -1.3086299,1.01907 -3.291018,1.81976 -5.9845582,2.28717 h -5.689e-4 v 4.7e-4 h -5.6114e-4 l -5.6114e-4,4.8e-4 -5.6114e-4,4.8e-4 -5.6114e-4,4.7e-4 H 0.6997289 0.69916776 c -2.74490956,0.4381 -6.04329116,0.66197 -9.88840926,0.66197 -3.8497455,0 -7.2146245,-0.22499 -10.0820025,-0.66578 h -0.0062 c -2.761302,-0.46856 -4.842444,-1.27237 -6.273545,-2.30858 -1.306413,-1.00843 -1.906193,-2.2584 -1.906193,-4.20313 0,-1.95191 0.594777,-3.17663 1.900582,-4.1484 l 0.0017,-0.002 0.0022,-0.002 c 1.428334,-1.07125 3.507712,-1.87286 6.279156,-2.30477 h 0.0062 l 0.0079,-0.002 c 2.861679,-0.47695 6.222615,-0.72051 10.0702185,-0.72051 z"
           transform="scale(0.92091869,1.0858722)" />
        <path
           style="baseline-shift:baseline;display:inline;overflow:visible;vector-effect:none;fill:#ffbe00;stroke-linecap:round;stroke-miterlimit:10.3;enable-background:accumulate;stop-color:#000000"
           d="m 136.48497,92.701406 -1.03869,15.826434 15.51687,10.24382 z m 14.47818,26.070254 -22.657,-12.00754 7.28584,11.44219 z m 7.82485,-8.11061 -8.52972,2.76106 1.85365,5.72575 -9.68934,3.13676 4.0442,12.49329 12.4933,-4.04419 -3.13677,-9.68933 5.72627,-1.85363 z m 27.62312,7.54734 -29.60957,3.54603 17.39377,6.57014 z m -29.60957,3.54603 9.46609,12.12381 13.54181,-0.8015 z m -14.67869,5.97638 -24.71734,52.26296 37.81784,-45.98737 -10.01902,3.24321 z"
           id="path2-0" />
      </g>
    </g>
  </g>
</svg>
