<?xml version="1.0" encoding="UTF-8" standalone="no"?>
<!-- Created with Inkscape (http://www.inkscape.org/) -->

<svg
   width="345.38876mm"
   height="87.292366mm"
   viewBox="0 0 345.38877 87.292366"
   version="1.1"
   id="svg1"
   xmlns="http://www.w3.org/2000/svg"
   xmlns:svg="http://www.w3.org/2000/svg">
  <defs
     id="defs1" />
  <g
     id="layer1"
     transform="translate(-404.12167,-180.0875)">
    <g
       id="g2"
       transform="translate(7.21497,-25.84582)">
      <path
         id="text27-8-4-76-9-7"
         style="font-weight:800;font-size:60.8321px;line-height:1;font-family:Syne;-inkscape-font-specification:'Syne Ultra-Bold';fill:#000000;fill-opacity:1;stroke-width:49.2678;stroke-linecap:round;stroke-linejoin:round;stroke-miterlimit:10.3"
         d="m 636.135,230.16472 c -1.56409,0 -3.06959,0.0317 -4.51652,0.0951 l -14.23944,11.79256 5.11079,2.51458 h 5.2e-4 c 1.04381,-0.42452 2.21176,-0.75564 3.5047,-0.99323 2.91311,-0.57248 6.29315,-0.85835 10.13995,-0.85835 3.84681,0 7.17093,0.28587 9.972,0.85835 2.80107,0.52844 4.96705,1.51971 6.49831,2.97295 1.53125,1.40919 2.29702,3.43492 2.29702,6.07715 0,2.64224 -0.76577,4.68954 -2.29702,6.14278 -1.53126,1.40919 -3.69724,2.40046 -6.49831,2.97294 -2.80107,0.52845 -6.12519,0.7922 -9.972,0.7922 -3.8468,0 -7.22684,-0.26375 -10.13995,-0.7922 -2.87577,-0.57248 -5.1351,-1.56375 -6.7784,-2.97294 -1.60595,-1.45324 -2.40915,-3.50054 -2.40915,-6.14278 0,-1.00736 0.11694,-1.92519 0.35036,-2.75332 l -14.22445,0.8418 -0.57671,-0.73845 c -0.0764,0.85539 -0.11472,1.739 -0.11472,2.64997 0,4.93217 1.12069,9.07153 3.36155,12.41836 2.27819,3.3028 5.90084,5.81283 10.86807,7.53029 4.96723,1.67342 11.52162,2.50992 19.6634,2.50992 8.14178,0 14.69616,-0.8365 19.66339,-2.50992 4.96724,-1.71746 8.57142,-4.22749 10.81227,-7.53029 2.27821,-3.34683 3.41736,-7.48619 3.41736,-12.41836 0,-4.93218 -1.13915,-9.04994 -3.41736,-12.35273 -2.24085,-3.34684 -5.84503,-5.85688 -10.81227,-7.5303 -4.96723,-1.71745 -11.52161,-2.57607 -19.66339,-2.57607 z m 41.17578,1.32085 v 42.27597 h 14.00535 v -25.24342 l 36.97396,25.24342 h 14.00535 v -42.27597 h -14.00535 v 25.70644 l -36.97396,-25.70644 z" />
      <path
         id="text27-4-8-9-1"
         style="font-weight:800;font-size:56.8602px;line-height:1;font-family:Syne;-inkscape-font-specification:'Syne Ultra-Bold';baseline-shift:baseline;display:inline;overflow:visible;vector-effect:none;fill:#000000;fill-opacity:1;stroke-linecap:round;stroke-miterlimit:10.3;enable-background:accumulate;stop-color:#000000"
         d="m 429.83131,230.16472 c -7.68432,0 -13.9107,0.80243 -18.7296,2.46859 -4.80096,1.61886 -8.43885,4.08779 -10.77971,7.52667 v 0.002 c -2.28313,3.3651 -3.41529,7.58987 -3.41529,12.46177 0,4.87192 1.13153,9.11181 3.41012,12.51499 l 0.005,0.009 0.006,0.009 c 2.34198,3.39525 5.97387,5.8608 10.77402,7.52048 l 0.004,0.002 h 0.004 c 4.81544,1.62228 11.03996,2.40295 18.72238,2.40295 7.68241,0 13.90487,-0.78067 18.7203,-2.40295 h 0.004 l 0.004,-0.002 c 4.80096,-1.65996 8.41871,-4.1258 10.72751,-7.52874 2.31606,-3.40244 3.46749,-7.64751 3.46749,-12.52379 0,-4.87339 -1.15171,-9.10108 -3.46956,-12.46436 -2.30786,-3.44166 -5.92802,-5.90899 -10.72544,-7.52667 -4.81891,-1.66616 -11.04322,-2.46858 -18.72754,-2.46858 z m 37.24321,1.23404 v 42.44908 h 15.57631 v -12.04009 h 32.46623 V 248.3786 h -32.46623 v -2.31615 h 39.69318 v -14.66369 z m 59.06616,0 v 42.44908 h 15.57683 v -12.04009 h 24.96953 l 1.38648,-2.93108 h -28.84217 v 12.03802 h -10.60452 v -36.58278 h 42.95087 l -1.86707,-2.93315 z m -96.30937,1.69912 c 7.53604,0 13.563,0.8032 18.02991,2.34765 l 0.003,0.002 h 0.004 c 4.47988,1.50924 7.59162,3.73051 9.47177,6.53862 l 0.006,0.009 0.006,0.009 c 1.93831,2.81003 2.91559,6.27706 2.91559,10.62106 0,4.34401 -0.97636,7.83511 -2.9192,10.68927 l -0.002,0.002 c -1.88029,2.77135 -4.99933,4.99624 -9.48418,6.5469 -4.46976,1.50467 -10.49545,2.28822 -18.02991,2.28822 -7.53362,0 -13.5603,-0.78388 -18.0299,-2.28822 -4.48046,-1.54914 -7.61935,-3.77236 -9.53689,-6.5469 -1.90717,-2.85204 -2.87063,-6.34676 -2.87063,-10.69133 0,-4.34721 0.96206,-7.82105 2.86701,-10.62985 l 0.002,-0.002 c 1.91681,-2.81471 5.04961,-5.03571 9.52914,-6.54482 h 0.004 l 0.006,-0.002 c 4.4669,-1.54446 10.49386,-2.34767 18.0299,-2.34767 z m 39.72884,1.23403 h 50.29616 v 8.79946 h -39.69112 v 8.18038 h 32.46572 v 7.56492 h -32.46572 v 12.03802 h -10.60504 z m -39.72884,7.56543 c -3.64317,0 -6.86184,0.2677 -9.66969,0.81855 h -5.2e-4 -5.2e-4 l -5.1e-4,5.2e-4 c -4.5e-4,2.2e-4 -0.002,7.9e-4 -0.002,0.001 h -5.2e-4 l -5.2e-4,5.1e-4 h -5.1e-4 -5.2e-4 c -2.81933,0.51887 -5.12677,1.49917 -6.88175,3.04994 -1.79964,1.57915 -2.75177,4.03652 -2.75177,6.85644 0,2.81991 0.94751,5.28386 2.7373,6.90345 l 0.0129,0.0129 0.0124,0.0109 c 1.75022,1.50089 4.04526,2.47875 6.86005,3.03908 l 0.009,0.002 h 0.009 c 2.80419,0.50868 6.02422,0.75912 9.66814,0.75912 3.64392,0 6.81088,-0.24864 9.51673,-0.75912 l 0.007,-0.002 0.009,-0.002 c 2.74976,-0.56199 4.96972,-1.54229 6.62647,-3.06699 l 0.007,-0.007 0.007,-0.007 c 1.71797,-1.63044 2.60966,-4.08071 2.60966,-6.88433 0,-2.79967 -0.89537,-5.23829 -2.61896,-6.82904 -1.66083,-1.57265 -3.89124,-2.55749 -6.64404,-3.07734 -2.71017,-0.5529 -5.87726,-0.82062 -9.52035,-0.82062 z m 109.40004,1.23403 v 8.18038 h 32.42024 l 1.387,-2.93315 h -31.32108 v -2.31615 h 32.41662 l 1.38648,-2.93108 z m -109.40004,1.69705 c 3.54333,0 6.58261,0.2645 9.10642,0.78032 l 0.009,0.002 0.007,0.002 c 2.47753,0.4674 4.2915,1.33423 5.49166,2.47323 l 0.007,0.007 0.007,0.007 c 1.13417,1.04378 1.66915,2.39001 1.66915,4.52582 0,2.12983 -0.5384,3.50455 -1.67639,4.58939 -1.20514,1.10658 -3.03076,1.97602 -5.51129,2.48357 h -5.2e-4 v 5.1e-4 h -5.2e-4 l -5.2e-4,5.2e-4 -5.1e-4,5.2e-4 -5.2e-4,5.1e-4 h -5.2e-4 -5.1e-4 c -2.52784,0.47572 -5.56538,0.71882 -9.10642,0.71882 -3.54531,0 -6.64409,-0.24431 -9.28471,-0.72295 h -0.006 c -2.54293,-0.5088 -4.4595,-1.38163 -5.77742,-2.50683 -1.2031,-1.09502 -1.75545,-2.45233 -1.75545,-4.56406 0,-2.11952 0.54774,-3.44941 1.75028,-4.50463 l 0.002,-0.002 0.002,-0.002 c 1.31538,-1.16324 3.23032,-2.03369 5.78259,-2.50269 h 0.006 l 0.007,-0.002 c 2.63538,-0.51791 5.73052,-0.78238 9.27385,-0.78238 z" />
      <path
         style="baseline-shift:baseline;display:inline;overflow:visible;vector-effect:none;fill:#000000;fill-opacity:1;stroke-linecap:round;stroke-miterlimit:10.3;enable-background:accumulate;stop-color:#000000"
         d="m 574.77883,205.93333 -1.03869,15.82643 15.51687,10.24382 z m 14.47818,26.07025 -22.657,-12.00754 7.28584,11.44219 z m 7.82485,-8.11061 -8.52972,2.76106 1.85365,5.72575 -9.68934,3.13676 4.0442,12.49329 12.4933,-4.04419 -3.13677,-9.68933 5.72627,-1.85363 z m 27.62312,7.54734 -29.60957,3.54603 17.39377,6.57014 z m -29.60957,3.54603 9.46609,12.12381 13.54181,-0.8015 z m -14.67869,5.97638 -24.71734,52.26296 37.81784,-45.98737 -10.01902,3.24321 z"
         id="path2-0-1-3" />
    </g>
  </g>
</svg>
