<?xml version="1.0" encoding="UTF-8" standalone="no"?>
<!-- Created with Inkscape (http://www.inkscape.org/) -->

<svg
   width="95.644814mm"
   height="123.43743mm"
   viewBox="0 0 95.644816 123.43743"
   version="1.1"
   id="svg1"
   xmlns="http://www.w3.org/2000/svg"
   xmlns:svg="http://www.w3.org/2000/svg">
  <defs
     id="defs1" />
  <g
     id="layer1"
     transform="translate(-324.88104,-319.67066)">
    <g
       id="g5"
       transform="translate(-324.06524,220.7885)">
      <path
         id="path3"
         style="baseline-shift:baseline;display:inline;overflow:visible;vector-effect:none;stroke-linecap:round;stroke-miterlimit:10.3;enable-background:accumulate;stop-color:#000000"
         d="m 680.55777,98.882157 -1.59008,24.249683 -13.94334,-7.38869 15.38873,24.1701 4.96714,0.18138 0.99787,3.08199 -37.43182,79.14297 57.42956,-69.83398 1.99265,-0.64492 3.05821,3.91604 28.60549,-1.69292 -14.15986,-6.96702 18.71875,-15.5019 -33.1897,3.97444 -3.57394,-11.03912 -11.04119,3.57446 z" />
      <path
         style="baseline-shift:baseline;display:inline;overflow:visible;vector-effect:none;fill:#ffbe00;stroke-linecap:round;stroke-miterlimit:10.3;enable-background:accumulate;stop-color:#000000"
         d="m 683.27223,110.97788 -1.03869,15.82643 15.51688,10.24382 z m 14.47819,26.07025 -22.65701,-12.00754 7.28585,11.44219 z m 7.82485,-8.11061 -8.52972,2.76106 1.85364,5.72575 -9.68933,3.13676 4.04419,12.49329 12.4933,-4.04419 -3.13676,-9.68933 5.72627,-1.85363 z m 27.62312,7.54734 -29.60957,3.54603 17.39377,6.57014 z m -29.60957,3.54603 9.46609,12.12381 13.54181,-0.8015 z m -14.67869,5.97638 -24.71735,52.26296 37.81785,-45.98737 -10.01903,3.24321 z"
         id="path2" />
    </g>
  </g>
</svg>
