<svg xmlns="http://www.w3.org/2000/svg" width="1305.406" height="329.924" viewBox="0 0 345.389 87.292"><path d="M636.135 230.165q-2.346 0-4.517.095l-14.239 11.792 5.11 2.515h.001q1.566-.637 3.505-.993 4.37-.86 10.14-.859 5.77 0 9.972.859 4.202.793 6.498 2.973 2.298 2.114 2.297 6.077t-2.297 6.143q-2.296 2.113-6.498 2.973-4.202.792-9.972.792t-10.14-.792q-4.314-.86-6.778-2.973-2.41-2.18-2.41-6.143 0-1.512.35-2.753l-14.224.841-.576-.738a30 30 0 0 0-.115 2.65q0 7.398 3.362 12.418 3.417 4.954 10.868 7.53 7.45 2.51 19.663 2.51t19.663-2.51q7.452-2.575 10.813-7.53 3.417-5.02 3.417-12.418t-3.417-12.353q-3.361-5.02-10.813-7.53-7.45-2.576-19.663-2.576m41.176 1.32v42.277h14.005v-25.244l36.974 25.244h14.005v-42.276H728.29v25.706l-36.974-25.706z" style="font-weight:800;font-size:60.8321px;line-height:1;font-family:Syne;-inkscape-font-specification:&quot;Syne Ultra-Bold&quot;;fill:#000;fill-opacity:1;stroke-width:49.2678;stroke-linecap:round;stroke-linejoin:round;stroke-miterlimit:10.3" transform="translate(-396.907 -205.933)"/><path d="M429.831 230.165c-7.684 0-13.91.802-18.73 2.468-4.8 1.62-8.438 4.088-10.779 7.527v.002c-2.283 3.365-3.415 7.59-3.415 12.462s1.131 9.112 3.41 12.515l.005.009.006.009c2.342 3.395 5.974 5.86 10.774 7.52l.004.002h.004c4.815 1.623 11.04 2.403 18.722 2.403s13.905-.78 18.72-2.403h.005l.004-.002c4.8-1.66 8.418-4.126 10.727-7.529 2.316-3.402 3.468-7.647 3.468-12.523 0-4.874-1.152-9.101-3.47-12.465-2.308-3.441-5.928-5.909-10.725-7.526-4.82-1.666-11.044-2.469-18.728-2.469zm37.244 1.234v42.449h15.576v-12.04h32.466v-13.43h-32.466v-2.316h39.693V231.4zm59.066 0v42.449h15.577v-12.04h24.969l1.387-2.931H539.23v12.038h-10.604v-36.583h42.95l-1.866-2.933zm-96.31 1.699c7.536 0 13.563.803 18.03 2.348l.003.002h.004c4.48 1.509 7.592 3.73 9.472 6.538l.006.01.006.008c1.938 2.81 2.916 6.277 2.916 10.621s-.977 7.835-2.92 10.69l-.002.001c-1.88 2.772-4.999 4.997-9.484 6.547-4.47 1.505-10.495 2.289-18.03 2.289-7.533 0-13.56-.784-18.03-2.289-4.48-1.549-7.619-3.772-9.537-6.547-1.907-2.852-2.87-6.346-2.87-10.69 0-4.348.962-7.822 2.867-10.63l.002-.003c1.917-2.814 5.05-5.035 9.529-6.545h.004l.006-.002c4.467-1.544 10.494-2.347 18.03-2.347zm39.73 1.234h50.295v8.8h-39.69v8.18h32.465v7.565h-32.466v12.038H469.56zm-39.73 7.565c-3.643 0-6.862.268-9.67.819l-.003.001h-.002c-2.82.52-5.127 1.5-6.882 3.05-1.8 1.58-2.752 4.037-2.752 6.857s.948 5.284 2.738 6.904l.013.013.012.01c1.75 1.501 4.045 2.48 6.86 3.04l.01.002h.008c2.804.508 6.024.759 9.668.759s6.811-.249 9.517-.76l.007-.001.009-.002c2.75-.562 4.97-1.543 6.626-3.067l.007-.007.007-.007c1.718-1.63 2.61-4.081 2.61-6.885 0-2.8-.895-5.238-2.619-6.829-1.66-1.572-3.891-2.557-6.644-3.077-2.71-.553-5.877-.82-9.52-.82zm109.4 1.234v8.18h32.42l1.388-2.932h-31.321v-2.317h32.416l1.387-2.93zm-109.4 1.697c3.544 0 6.583.265 9.107.78l.009.003.007.002c2.477.467 4.291 1.334 5.491 2.473l.007.007.007.007c1.135 1.044 1.67 2.39 1.67 4.526 0 2.13-.539 3.504-1.677 4.59-1.205 1.106-3.03 1.975-5.511 2.483h-.001l-.001.001h-.001c-2.529.477-5.566.72-9.107.72-3.545 0-6.644-.245-9.285-.723h-.006c-2.543-.51-4.46-1.382-5.777-2.507-1.203-1.095-1.756-2.452-1.756-4.564 0-2.12.548-3.45 1.75-4.505l.003-.002.002-.002c1.315-1.163 3.23-2.034 5.782-2.503h.006l.007-.002c2.635-.517 5.73-.782 9.274-.782z" style="font-weight:800;font-size:56.8602px;line-height:1;font-family:Syne;-inkscape-font-specification:&quot;Syne Ultra-Bold&quot;;baseline-shift:baseline;display:inline;overflow:visible;vector-effect:none;fill:#000;fill-opacity:1;stroke-linecap:round;stroke-miterlimit:10.3;stop-color:#000" transform="translate(-396.907 -205.933)"/><path d="m574.779 205.933-1.039 15.827 15.517 10.244zm14.478 26.07L566.6 219.997l7.286 11.442zm7.825-8.11-8.53 2.761 1.854 5.726-9.69 3.137 4.045 12.493 12.493-4.044-3.137-9.69 5.726-1.853zm27.623 7.547-29.61 3.546 17.394 6.57zm-29.61 3.546 9.466 12.124 13.542-.801zm-14.678 5.977-24.718 52.263 37.818-45.988-10.019 3.244z" style="baseline-shift:baseline;display:inline;overflow:visible;vector-effect:none;fill:#000;fill-opacity:1;stroke-linecap:round;stroke-miterlimit:10.3;stop-color:#000" transform="translate(-396.907 -205.933)"/></svg>